<svg xmlns="http://www.w3.org/2000/svg" viewBox="0 0 400 400" fill="none"><path d="M200 330V120" stroke="#334a30" stroke-width="14" stroke-linecap="round"/><path d="M197 195c-62-48-116-44-147-10 32 44 83 55 147 25Z" fill="#6f9760"/><path d="M209 176c36-66 93-81 144-55-17 60-66 82-144 55Z" fill="#8eaa6e"/><path d="M197 140c-8-48 13-82 57-107 21 45 4 80-57 107Z" fill="#5e814e"/><circle cx="119" cy="191" r="24" fill="#e66b4f"/><circle cx="286" cy="164" r="22" fill="#efc34e"/><circle cx="93" cy="238" r="18" fill="#8ca94b"/><path d="M120 329h160l-22 47H142l-22-47Z" fill="#bdb5a2"/><ellipse cx="200" cy="329" rx="80" ry="16" fill="#6d5941"/></svg>