<svg xmlns="http://www.w3.org/2000/svg" viewBox="0 0 400 400" fill="none"><path d="M200 340V150" stroke="#30492d" stroke-width="15" stroke-linecap="round"/><path d="M200 235C147 191 86 185 45 215c35 45 93 57 155 20Z" fill="#6f8d63"/><path d="M202 208c42-66 104-79 155-51-17 57-69 79-155 51Z" fill="#91ad70"/><path d="M199 164c-11-48 11-88 56-112 21 48 5 84-56 112Z" fill="#5f7e4a"/><circle cx="120" cy="155" r="20" fill="#d85d57"/><circle cx="290" cy="160" r="19" fill="#e6a04e"/><circle cx="86" cy="215" r="16" fill="#db6d72"/><path d="M120 330h160l-20 46H140l-20-46Z" fill="#bdb5a2"/><ellipse cx="200" cy="330" rx="80" ry="16" fill="#6b5c46"/></svg>